<svg id="Layer_2" data-name="Layer 2" xmlns="http://www.w3.org/2000/svg" viewBox="0 0 835.03 125"><rect x="284.14" y="6.37" width="113.36" height="33.66"/><rect x="284.14" y="86.2" width="113.36" height="33.66"/><rect x="284.14" y="49.81" width="86.92" height="25.39"/><polygon points="189.51 53.43 142.57 6.49 124.62 24.44 171.56 71.38 157.56 85.38 193.47 121.28 273.32 41.43 237.42 5.53 189.51 53.43"/><polygon points="645.47 50.82 601.57 6.92 601.57 6.81 601.46 6.81 601.33 6.68 601.19 6.81 550.8 6.81 550.8 120.17 601.57 120.17 601.57 42.83 645.38 86.64 645.47 86.55 645.47 120.17 696.25 120.17 696.25 6.81 645.47 6.81 645.47 50.82"/><path d="M1095.49,130.64a62.5,62.5,0,1,0,62.5,62.5A62.5,62.5,0,0,0,1095.49,130.64Zm0,90.58a28.08,28.08,0,1,1,28.07-28.08A28.08,28.08,0,0,1,1095.49,221.22Z" transform="translate(-620.63 -130.64)"/><path d="M743.11,181.35h-60v19.56h27a28.07,28.07,0,1,1-27-35.85c1,0,1.9.05,2.83.14v-.14H711.2V130.64H683.13c-1.56,0-3.09.07-4.62.18a62.53,62.53,0,1,0,66,50.53Z" transform="translate(-620.63 -130.64)"/><path d="M1454.53,181.35h-61.37v19.56h27a28.07,28.07,0,1,1-27-35.85c.95,0,1.9.05,2.83.14v-.14h25.24V130.64h-28.07c-1.56,0-3.09.07-4.62.18a62.53,62.53,0,1,0,66,50.53Z" transform="translate(-620.63 -130.64)"/></svg>